PathFileType	4	(X/Y/Z)	Patient4_TMGait_0pt5_02_right_44.trc.trc
DataRate	CameraRate	NumFrames	NumMarkers	Units	OrigDataRate	OrigDataStartFrame	OrigNumFrames
75.268817204301	75.268817204301	4	33	mm	75.268817204301	36	       141
Frame#	Time	Sacral			L.Shoulder			Chest			R.Shoulder			Neck			R.ASIS			L.ASIS			R.Thigh.Superior			R.Thigh.Lateral			R.Thigh.Inferior			R.Patella			L.Thigh.Superior			L.Thigh.Lateral			L.Thigh.Inferior			L.Patella			L.Shank.Superior			L.Shank.Lateral			L.Shank.Inferior			R.Shank.Superior			R.Shank.Lateral			R.Shank.Inferior			R.Heel			R.Midfoot.Superior			R.Midfoot.Lateral			R.Toe			L.Heel			L.Midfoot.Lateral			L.Midfoot.Superior			L.Toe			L.Elbow			L.Wrist			R.Elbow			R.Wrist			
		X1	Y1	Z1	X2	Y2	Z2	X3	Y3	Z3	X4	Y4	Z4	X5	Y5	Z5	X6	Y6	Z6	X7	Y7	Z7	X8	Y8	Z8	X9	Y9	Z9	X10	Y10	Z10	X11	Y11	Z11	X12	Y12	Z12	X13	Y13	Z13	X14	Y14	Z14	X15	Y15	Z15	X16	Y16	Z16	X17	Y17	Z17	X18	Y18	Z18	X19	Y19	Z19	X20	Y20	Z20	X21	Y21	Z21	X22	Y22	Z22	X23	Y23	Z23	X24	Y24	Z24	X25	Y25	Z25	X26	Y26	Z26	X27	Y27	Z27	X28	Y28	Z28	X29	Y29	Z29	X30	Y30	Z30	X31	Y31	Z31	X32	Y32	Z32	X33	Y33	Z33	

36	57.835000000000	690.671274725333	994.507853407947	486.902823036283	866.828182245396	1430.609808537014	323.089681079750	957.034383809489	1357.655331353724	490.471193249121	858.995098119988	1427.358456099935	659.593189417943	856.981367349424	1488.904987881651	474.344155381603	913.834569585827	936.213756004959	615.817735524778	909.776932378531	955.677194921338	333.237252770436	983.734017888195	749.619472733485	583.176169882165	918.273032447364	632.155280728684	641.525685668578	1004.507730935838	590.615939324453	562.880251582793	1019.380203515548	500.312232297439	569.484931047295	938.813144825651	729.432390898092	368.184642635279	842.687708608750	620.877686511261	303.463754632061	917.700680648823	531.600266538868	366.453135985062	904.719938365095	448.123773455396	366.490359262922	839.119529874804	391.125291209789	359.134229629197	704.360654763938	337.967739489233	307.107428800838	694.113257650566	212.165776227475	367.827741269239	994.864788891412	409.216578099508	576.936635281897	929.773940796443	302.311506334894	640.127819934066	976.973026602616	209.465375840193	578.240670124824	849.198589349318	42.847299717325	551.955430438258	1020.398612076467	98.522282859928	585.158706339006	933.627082479343	37.071644392707	625.530658509394	1141.162036273140	47.190940561117	610.943853812332	506.437726040387	128.235587878274	400.207189934039	572.420720462414	91.341595610823	323.384394807273	672.500993820272	113.872489855804	348.310838666222	765.533736998193	33.270371316943	326.461224039195	900.795002862159	1080.719263033326	200.638310122208	1142.176296651315	1026.184800693096	264.644583532594	786.879438648718	1085.719591075917	764.976650165337	885.962942518630	843.593867968965	769.806512245526	
37	57.848285714286	690.555869879938	995.409953835308	490.381059060772	865.647584586955	1431.708084910266	325.521364803651	956.823400834573	1358.741368571255	492.349513289677	859.760608047574	1428.233164439934	662.034467842234	856.424299318891	1489.827072217473	476.933384959971	914.264161787550	937.229754791079	618.306888373774	909.256635795059	955.841674552904	336.684332362943	982.224671701453	748.970656282099	585.953703018017	915.535864681169	632.228642888767	643.773312255544	1001.113655528724	589.990331794311	564.800052236581	1015.007078209286	499.682189200740	570.956346916843	943.434157061361	731.958325072598	370.791132989520	851.753855858258	621.061501009896	305.121669845098	929.962925728709	533.422140365198	367.672040800942	918.129862999177	448.597946866432	366.619977906716	850.375524442110	391.949571990460	359.494938343873	713.182771700446	344.071197173182	308.524635095164	699.391921663342	218.026256870564	367.955669476902	990.076365634189	408.769287635008	578.250178400247	924.566952723004	301.986387123623	641.129113401885	971.093083730713	209.141502951648	578.842184911627	842.672032941218	42.781575888830	552.098339920050	1013.876376128604	98.515313265831	585.363546712503	927.068403012702	37.013074840521	625.663387593216	1134.637878746302	47.127554766361	611.111205364485	508.901362709247	144.107327435781	401.166216221576	571.914787303251	102.729873772401	324.134489702859	673.453992136470	118.519409413533	348.425994737751	759.744156614607	32.098466863926	326.686905041560	897.809649206057	1081.937459848182	202.442020209060	1139.379071174739	1027.187200344932	265.359828402847	792.172665103494	1086.119344959636	769.558383550128	900.839175145253	848.362535594586	773.350995548976	
38	57.861571428571	690.305239671115	996.151491937046	493.894153462793	864.333362452068	1432.499152227854	327.664711668834	956.547200393461	1359.624433376641	493.942318585988	860.526307217316	1429.000604480239	664.178519218288	855.808376739571	1490.570966750780	479.202733444585	914.463294776174	938.108821300759	620.832434510370	908.641633444434	955.700012911306	340.233150799304	980.534458428732	748.272839938926	588.767763026743	912.687665403812	632.228371341400	646.079510885601	997.621632936819	589.346133040489	566.794698248827	1010.518234234002	499.033515881639	572.531289383898	947.848668698773	734.618082506771	373.419822323822	860.766630715465	621.588929199039	306.565452880646	942.022235137888	535.723891241419	368.779072867745	931.499292626297	449.659271406366	366.738719650622	861.874593503962	393.225606556839	359.777749913824	722.552388907189	350.436843060204	309.782478234469	705.323730467713	224.290322048774	368.089148415072	985.205979192717	408.279928309480	579.627372065617	919.302503252436	301.602743524108	642.185657063628	965.164438268809	208.781641298831	579.470074512400	836.083189643313	42.716405800757	552.233827131989	1007.320611773222	98.455198142818	585.566385974974	920.449145310334	36.932621936251	625.792310754295	1128.061126445642	46.991692003341	611.271744118407	512.534045172542	160.293399560957	402.127134334148	572.468253877119	114.677173915341	324.890197812223	675.138210536693	123.767144935412	348.611732444542	754.590168186787	30.988858047244	326.886787661061	894.274903536614	1082.753093393853	203.970133559152	1135.994554686815	1027.315708201914	265.778300843805	797.474665190554	1086.638181717705	774.214385165839	915.883835028010	853.781975135504	776.910324412302	
39	57.874857142857	689.897955426731	996.736106120393	497.413065674930	862.902886080724	1432.986573515795	329.529720091236	956.203724625937	1360.301986462755	495.269312256397	861.279386288576	1429.677671114057	666.032547968614	855.159884097937	1491.145680089915	481.152907777076	914.442154513902	938.850270967557	623.378395509231	907.895405500941	955.314699626216	343.755614894715	978.733637449618	747.572785383753	591.560268700103	909.798555953184	632.169448294265	648.387131554687	994.115531558732	588.704019628241	568.818105306007	1006.006602971227	498.380014087328	574.149752333348	951.962007677446	737.434172386898	376.020779022610	869.525633799783	622.521725582414	307.814154955559	953.661116783449	538.540972972475	369.774791828830	944.629126835703	451.346776839869	366.848124265959	873.421831371615	394.984112639683	359.999920956823	732.286186887413	356.943888951429	310.876208935731	711.835009574536	230.798468782749	368.227619357455	980.329361411410	407.761615388264	581.020541567738	914.041345338993	301.190275184168	643.268640474668	959.227462448735	208.398367666994	580.097514386569	829.441442115840	42.659526787556	552.365864501499	1000.738602841610	98.356275547565	585.761079448437	913.779724044664	36.842718268603	625.920969422206	1121.440968140792	46.801056705072	611.424533591136	517.273179052185	176.199048685901	403.065409999945	574.173861675977	126.754979952428	325.618401523216	677.645622590362	129.487678668209	348.830912021806	750.447036856496	30.083865714473	326.997716804440	890.217728191303	1083.144763845225	205.301497573943	1132.049502729728	1026.463652912865	265.872166003786	802.823525220971	1087.258090717072	778.856278145719	931.052874178192	859.854920838159	780.374181399427	
